<?xml version="1.0" encoding="utf-8"?>
<!-- Generator: Adobe Illustrator 26.0.2, SVG Export Plug-In . SVG Version: 6.00 Build 0)  -->
<svg version="1.1" id="Layer_1" xmlns="http://www.w3.org/2000/svg" xmlns:xlink="http://www.w3.org/1999/xlink" x="0px" y="0px"
	 viewBox="0 0 1920 1080" style="enable-background:new 0 0 1920 1080;" xml:space="preserve">
<style type="text/css">
	.st0{clip-path:url(#SVGID_00000124146931167120858670000003368161873828680344_);}
	.st1{fill:#D3D0CB;}
</style>
<g>
	<g>
		<defs>
			<rect id="SVGID_1_" x="138.5" y="79.5" width="1642.9" height="921.1"/>
		</defs>
		<clipPath id="SVGID_00000000211844859005486700000014357373485103363766_">
			<use xlink:href="#SVGID_1_"  style="overflow:visible;"/>
		</clipPath>
		<g id="Web_1920_1" style="clip-path:url(#SVGID_00000000211844859005486700000014357373485103363766_);">
			<g id="EST" transform="translate(978.624 597.807)">
				<path class="st1" d="M199.3,214.9l-15,0.3v36.9l-41.6,0.8v-30.8l-15.2,0.3v30.8l-40,0.8v-36.5l-15.1,0.3v53.6l126.9-2.4V214.9z
					 M117.3,142.9l-20.2,0.3c-4.1,0-8.1,0.8-11.8,2.4c-3.2,1.4-6,3.7-8.1,6.4c-2.2,2.9-3.8,6.1-4.7,9.6c-1,3.9-1.5,8-1.5,12.1v0.3
					c-0.1,4.1,0.4,8.1,1.5,12c0.9,3.4,2.5,6.7,4.7,9.5c2.1,2.7,5,4.8,8.1,6.1c3.8,1.5,7.8,2.2,11.8,2l16-0.3c2.7,0,5.4-0.4,8-1.3
					c2.2-0.8,4.4-2,6.2-3.5c2-1.6,3.7-3.6,5.2-5.6c1.8-2.5,3.4-5.1,4.9-7.8l9.1-16.5c0.9-1.6,1.9-3.2,3-4.8c0.9-1.2,2-2.3,3.2-3.2
					c1.2-0.9,2.5-1.4,3.9-1.8c1.6-0.4,3.3-0.6,5-0.6l9.9-0.2c2.1-0.1,4.4,0.2,6.4,0.9c1.7,0.5,3.3,1.4,4.5,2.6
					c1.2,1.2,2.1,2.6,2.7,4.3c0.6,1.9,0.9,3.9,0.9,5.9c0,2-0.3,4-0.9,5.9c-0.5,1.6-1.5,3.2-2.7,4.3c-1.3,1.3-2.8,2.1-4.5,2.7
					c-2.1,0.7-4.3,1-6.4,1l-18.7,0.3v16.6l21.6-0.3c4.2,0,8.3-0.7,12.2-2.2c3.2-1.3,6-3.3,8.1-6.1c2.2-2.8,3.8-6.1,4.5-9.6
					c1-4.2,1.5-8.5,1.5-12.8v-0.3c0.1-4.3-0.4-8.6-1.5-12.8c-0.9-3.4-2.4-6.7-4.6-9.4c-2.1-2.6-5-4.6-8.1-5.8c-3.9-1.4-8-2-12.2-1.9
					l-17.5,0.3c-2.7,0-5.5,0.4-8,1.4c-2.3,0.9-4.4,2-6.4,3.7c-2,1.7-3.8,3.6-5.3,5.6c-1.7,2.4-3.3,4.9-4.7,7.4l-9.1,16.6
					c-0.9,1.6-1.9,3.2-3,4.7c-0.9,1.2-1.9,2.2-3,3.2c-1.1,0.9-2.3,1.4-3.7,1.8c-1.6,0.4-3.3,0.6-4.9,0.6l-8.7,0.2
					c-2.2,0.1-4.4-0.2-6.5-0.8c-1.6-0.5-3.2-1.4-4.4-2.6c-1.2-1.2-2.1-2.6-2.5-4.3c-0.6-1.9-0.9-3.8-0.8-5.8c0-2,0.3-3.9,0.8-5.8
					c0.5-1.6,1.4-3.1,2.5-4.3c1.2-1.3,2.7-2.1,4.4-2.7c2.1-0.7,4.3-1,6.5-1l17.3-0.3L117.3,142.9z M72.4,72.8v61.4l15.1-0.2v-22.2
					l111.8-1.4v-17L87.5,94.8V72.6L72.4,72.8z"/>
				<path class="st1" d="M201.4,171.5v0.3c0,2.6-0.1,4.9-0.3,7.2s-0.6,4.3-1.1,6.1c-0.5,1.9-1.1,3.7-1.9,5.2c-0.8,1.6-1.7,3-2.7,4.3
					c-0.5,0.7-1.1,1.4-1.8,2c-0.6,0.6-1.3,1.2-2,1.7s-1.5,1-2.2,1.4s-1.6,0.9-2.5,1.2c-0.9,0.3-1.8,0.7-2.7,0.9
					c-0.9,0.3-2,0.5-3,0.7s-2.1,0.3-3.3,0.4c-1.1,0.1-2.3,0.2-3.5,0.2l-21.6,0.3h-0.7v-0.7v-16.6v-0.7h0.7l18.7-0.3
					c2.3,0,4.4-0.3,6.1-0.9s3.2-1.4,4.3-2.5c1.1-1.1,2-2.5,2.6-4.1c0.6-1.6,0.9-3.6,0.9-5.8c0-2.2-0.3-4.1-0.9-5.7s-1.5-3-2.6-4
					c-1.1-1.1-2.6-1.9-4.3-2.4s-3.8-0.8-6.1-0.7l-9.9,0.2c-0.9,0-1.8,0.1-2.6,0.2c-0.8,0.1-1.5,0.3-2.2,0.4s-1.3,0.4-1.9,0.7
					c-0.6,0.3-1.2,0.6-1.7,1c-0.5,0.3-1,0.8-1.5,1.3c-0.5,0.5-0.9,1-1.5,1.6c-0.5,0.6-0.9,1.4-1.5,2.1c-0.5,0.8-1,1.7-1.6,2.6
					l-9.1,16.5c-0.7,1.3-1.5,2.6-2.2,3.8c-0.8,1.3-1.6,2.5-2.4,3.7c-0.9,1.2-1.7,2.3-2.7,3.3c-0.9,1-1.9,2-2.9,2.8s-2.1,1.5-3.1,2.1
					c-1.1,0.6-2.2,1.1-3.4,1.5c-1.2,0.4-2.5,0.7-3.9,0.9c-1.4,0.2-2.7,0.3-4.3,0.3l-16,0.3c-2.2,0-4.4-0.1-6.3-0.4
					c-2-0.3-3.9-0.9-5.6-1.5s-3.3-1.6-4.7-2.6c-1.5-1.1-2.7-2.3-3.9-3.8c-1-1.3-2-2.7-2.7-4.3c-0.8-1.5-1.5-3.3-2-5.1
					c-0.5-1.9-0.9-3.8-1.2-5.9c-0.3-2-0.4-4.3-0.4-6.7v-0.3c0-2.3,0.2-4.5,0.4-6.7c0.3-2.1,0.7-4.1,1.2-5.9c0.5-1.9,1.2-3.6,2-5.2
					c0.8-1.6,1.7-3.1,2.7-4.4c1.2-1.4,2.5-2.8,3.9-3.9c1.5-1.1,3-2,4.7-2.8s3.6-1.4,5.6-1.7c2-0.4,4.1-0.6,6.3-0.7l20.2-0.3h0.7v0.7
					v16.5v0.7h-0.7l-17.3,0.3c-1.2,0-2.3,0.1-3.3,0.3c-1,0.2-2,0.3-2.8,0.7c-0.9,0.3-1.6,0.7-2.3,1.1c-0.7,0.4-1.4,0.9-1.9,1.5
					c-0.5,0.5-0.9,1.1-1.4,1.8c-0.4,0.7-0.7,1.4-0.9,2.2c-0.3,0.8-0.4,1.7-0.6,2.6c-0.1,0.9-0.2,2-0.2,3.1c0,1.1,0.1,2.1,0.2,3.1
					c0.1,0.9,0.3,1.8,0.6,2.6c0.3,0.8,0.6,1.5,0.9,2.1c0.4,0.7,0.9,1.3,1.4,1.8s1.2,1,1.9,1.4c0.7,0.4,1.5,0.8,2.3,1
					s1.8,0.4,2.8,0.6c1,0.1,2.1,0.2,3.3,0.2l8.7-0.2c1.8,0,3.3-0.2,4.6-0.6c1.3-0.3,2.5-0.9,3.5-1.7c1-0.8,2-1.8,2.9-3
					c0.9-1.3,1.9-2.8,2.9-4.6l9.1-16.6c1.6-2.8,3.2-5.4,4.9-7.6c1.7-2.2,3.5-4.2,5.4-5.8c2-1.6,4.1-2.8,6.6-3.7
					c2.4-0.9,5.1-1.4,8.2-1.4l17.5-0.3c1.2,0,2.3,0,3.4,0.1c1.1,0.1,2.2,0.2,3.3,0.3s2.1,0.3,3,0.6c0.9,0.3,1.9,0.5,2.7,0.9
					c0.9,0.3,1.6,0.7,2.5,1.1c0.8,0.4,1.5,0.9,2.2,1.4s1.4,1,2,1.6c0.6,0.6,1.2,1.2,1.8,1.9c1,1.3,2,2.6,2.7,4.3
					c0.8,1.5,1.5,3.2,2,5.2c0.5,1.9,0.9,3.9,1.2,6.1C201.3,166.7,201.4,169,201.4,171.5z M153.6,202.1l20.8-0.3
					c2.3,0,4.4-0.3,6.3-0.6c2-0.3,3.8-0.9,5.4-1.5c1.6-0.7,3.2-1.4,4.4-2.5c1.4-0.9,2.6-2.1,3.6-3.4c0.9-1.2,1.8-2.6,2.6-4.1
					c0.8-1.5,1.4-3.2,1.8-5c0.5-1.8,0.9-3.8,1.1-6c0.3-2.1,0.3-4.4,0.3-6.9v-0.3c0-2.5-0.1-4.8-0.3-6.9c-0.3-2.1-0.6-4.1-1.1-5.9
					c-0.5-1.8-1.1-3.4-1.9-4.9c-0.8-1.5-1.6-2.8-2.6-4c-1-1.3-2.2-2.4-3.6-3.3c-1.4-0.9-2.8-1.7-4.4-2.3c-1.6-0.6-3.4-1-5.4-1.4
					c-2-0.3-4-0.4-6.3-0.4l-17.5,0.3c-1.4,0-2.7,0.2-4,0.3s-2.5,0.5-3.6,0.9c-1.2,0.4-2.2,0.9-3.3,1.5c-1,0.6-2.1,1.3-3.1,2.1
					c-0.9,0.7-1.6,1.4-2.5,2.3c-0.8,0.9-1.6,1.8-2.4,2.8c-0.8,1-1.6,2.2-2.4,3.5c-0.9,1.3-1.7,2.7-2.6,4.3l-9.1,16.6
					c-1.1,2-2.1,3.6-3.1,4.9c-1,1.4-2.1,2.4-3.2,3.2c-1.1,0.9-2.4,1.4-3.9,1.8c-1.5,0.4-3.1,0.6-5,0.6l-8.7,0.2
					c-2.5,0-4.7-0.3-6.6-0.8c-1.9-0.6-3.4-1.4-4.6-2.6c-1.2-1.2-2.1-2.6-2.7-4.4c-0.6-1.8-0.9-3.9-0.9-6.3c0-2.4,0.3-4.5,0.9-6.3
					c0.6-1.8,1.5-3.3,2.7-4.5c1.2-1.2,2.8-2.1,4.6-2.7c1.9-0.6,4-0.9,6.6-0.9l16.6-0.3v-15.3L97,143.8c-2.1,0-4.1,0.3-6,0.6
					s-3.7,0.9-5.3,1.6c-1.6,0.7-3.1,1.6-4.4,2.6c-1.4,1-2.6,2.3-3.7,3.7c-1,1.3-1.9,2.6-2.7,4.2c-0.8,1.5-1.4,3.2-1.9,5
					c-0.5,1.8-0.9,3.7-1.2,5.7c-0.3,2-0.4,4.2-0.4,6.4v0.3c0,2.2,0.2,4.3,0.4,6.3c0.3,2,0.7,3.9,1.2,5.7c0.5,1.8,1.1,3.4,1.9,4.9
					c0.8,1.5,1.6,2.9,2.7,4.1c1.1,1.4,2.3,2.6,3.7,3.6c1.4,1,2.8,1.9,4.4,2.5c1.6,0.7,3.4,1.2,5.3,1.4c1.9,0.3,3.9,0.4,6,0.4l16-0.3
					c2.9-0.1,5.4-0.4,7.6-1.2c2.2-0.8,4.2-1.9,6-3.3c1.8-1.4,3.5-3.3,5.1-5.5s3.3-4.8,5-7.8l9.1-16.5c0.6-1,1.1-2,1.7-2.8
					c0.5-0.9,1-1.6,1.6-2.2c0.5-0.7,1-1.3,1.5-1.8c0.5-0.5,1-0.9,1.6-1.4c0.6-0.4,1.2-0.8,1.9-1.1c0.7-0.3,1.4-0.6,2.1-0.8
					s1.5-0.3,2.4-0.5c0.9-0.1,1.8-0.2,2.8-0.2l9.9-0.2c1.3,0,2.5,0.1,3.6,0.2c1.1,0.2,2.1,0.3,3.1,0.7c0.9,0.3,1.8,0.7,2.7,1.1
					c0.8,0.4,1.5,1,2.1,1.6c0.6,0.6,1.1,1.3,1.6,2c0.4,0.8,0.9,1.5,1.2,2.5c0.3,0.9,0.5,1.9,0.7,2.9c0.2,1,0.3,2.1,0.3,3.3
					s-0.1,2.3-0.3,3.3c-0.2,1-0.4,2-0.7,2.9c-0.3,0.9-0.7,1.7-1.2,2.5c-0.4,0.8-1,1.4-1.6,2c-0.6,0.6-1.4,1.2-2.1,1.7
					s-1.7,0.9-2.7,1.2c-0.9,0.3-2,0.6-3.1,0.8c-1.1,0.2-2.3,0.3-3.6,0.3l-18,0.3L153.6,202.1L153.6,202.1z M199.9,92.7v0.7v17v0.7
					h-0.7l-111.1,1.4v21.5v0.7h-0.7l-15.1,0.2h-0.7v-0.7V72.7V72h0.7l15.1-0.2h0.7v0.7V94l111.1-1.3H199.9z M198.6,109.8V94.2
					L87.5,95.5h-0.7v-0.7V73.3l-13.7,0.2v60l13.7-0.2v-21.5v-0.7h0.7L198.6,109.8z M199.9,214.3v0.7v53.9v0.7h-0.7l-126.9,2.4h-0.7
					v-0.7v-53.6v-0.7h0.7l15.1-0.3h0.7v0.7v35.8l38.6-0.7v-30.1v-0.7h0.7l15.2-0.3h0.7v0.7v30.1l40.2-0.8v-36.2v-0.7h0.7l15-0.3
					L199.9,214.3z M198.6,268.1v-52.5l-13.6,0.3v36.2v0.7h-0.7l-41.6,0.8H142v-0.7v-30.1l-13.9,0.3v30.1v0.7h-0.7l-40,0.8h-0.7v-0.7
					v-35.8l-13.7,0.3v52.2L198.6,268.1z"/>
			</g>
			<path id="_2022" class="st1" d="M1205.9,736.4h25.9v-27.6c-0.1-3.5,0.3-7,1.2-10.4c0.7-2.6,1.9-4.9,3.7-6.8
				c1.6-1.8,3.8-3.1,6.1-3.8c2.7-0.9,5.6-1.2,8.4-1.1c2.9-0.1,5.7,0.3,8.5,1.2c2.4,0.7,4.5,2,6.3,3.8c1.9,2,3.3,4.3,3.9,6.8
				c0.9,3.3,1.5,6.8,1.4,10.4v21.2c0,2.8-0.5,5.6-1.5,8.3c-1.2,2.7-2.7,5.3-4.7,7.6c-2.5,2.8-5.1,5.5-8,8c-3.2,2.9-6.9,6.1-11.1,9.7
				c-5.2,4.6-10.4,9-15.2,13.5c-4.6,4.3-9,8.8-13,13.7c-3.8,4.5-6.8,9.6-9.1,15c-2.2,5.5-3.4,11.5-3.4,17.6v44h92.3v-22.7h-66.1
				v-20.7c0-3.3,0.7-6.7,2-9.7c1.5-3.4,3.3-6.6,5.6-9.5c2.8-3.5,5.9-6.8,9.2-9.9c3.6-3.5,7.7-7.2,12.3-11.2c5-4.4,9.8-8.5,14.1-12.5
				c4.2-3.7,8.1-7.6,11.7-11.8c3.3-3.8,6-8.1,8-12.7c2-4.9,3-10.1,3-15.4v-26.2c0.2-6.4-0.9-12.7-2.9-18.7
				c-1.8-4.9-4.8-9.4-8.7-12.9c-4.1-3.5-9-6.1-14.3-7.4c-6.4-1.7-13-2.5-19.7-2.4h-0.6c-6.6-0.1-13.3,0.7-19.7,2.4
				c-5.2,1.4-10.1,3.9-14.3,7.4c-3.9,3.5-6.9,7.9-8.7,12.9c-2.1,6.1-3.1,12.4-2.9,18.7v31H1205.9z M1372.1,664h-2.3
				c-6.7-0.1-13.3,0.8-19.7,2.5c-5.4,1.4-10.4,4.1-14.7,7.7c-4.1,3.6-7.3,8.1-9.2,13.2c-2.2,6.1-3.3,12.6-3.2,19.1v120.8
				c-0.2,6.5,0.9,13,3.2,19.1c1.9,5.1,5,9.6,9.2,13.2c4.3,3.6,9.3,6.2,14.7,7.7c6.4,1.8,13.1,2.6,19.7,2.5h2.3
				c6.7,0.1,13.3-0.8,19.7-2.5c5.4-1.4,10.4-4.1,14.7-7.7c4.1-3.6,7.3-8.1,9.2-13.2c2.2-6.1,3.3-12.6,3.2-19.1V706.6
				c0.2-6.5-0.9-13-3.2-19.1c-1.9-5.1-5-9.6-9.2-13.2c-4.3-3.6-9.3-6.2-14.7-7.7C1385.4,664.7,1378.7,663.8,1372.1,664L1372.1,664z
				 M1392.6,711.7V822c0.1,3.8-0.4,7.6-1.4,11.3c-0.8,2.7-2.1,5.3-4.1,7.3c-1.9,1.9-4.2,3.2-6.8,4c-6.2,1.6-12.6,1.6-18.7,0
				c-2.6-0.8-4.9-2.1-6.8-4c-2-2-3.3-4.6-4.1-7.3c-1-3.7-1.5-7.4-1.4-11.3V711.7c-0.1-3.8,0.4-7.6,1.4-11.3c0.8-2.7,2.1-5.3,4.1-7.3
				c1.9-1.9,4.2-3.2,6.8-4c6.2-1.6,12.6-1.6,18.7,0c2.6,0.8,4.9,2.1,6.8,4c2,2,3.3,4.6,4.1,7.3
				C1392.1,704.1,1392.6,707.9,1392.6,711.7L1392.6,711.7z M1445.9,736.4h25.9v-27.6c-0.1-3.5,0.3-7,1.2-10.4
				c0.7-2.6,1.9-4.9,3.7-6.8c1.6-1.8,3.8-3.1,6.1-3.8c2.7-0.9,5.6-1.2,8.4-1.1c2.9-0.1,5.7,0.3,8.5,1.2c2.4,0.7,4.5,2,6.3,3.8
				c1.9,2,3.3,4.3,3.9,6.8c0.9,3.3,1.5,6.8,1.4,10.4v21.2c0,2.8-0.5,5.6-1.5,8.3c-1.2,2.7-2.7,5.3-4.7,7.6c-2.5,2.8-5.1,5.5-8,8
				c-3.2,2.9-6.9,6.1-11.1,9.7c-5.3,4.6-10.4,9-15.2,13.5c-4.6,4.3-9,8.8-13,13.7c-3.8,4.5-6.8,9.6-9.1,15
				c-2.2,5.5-3.4,11.5-3.4,17.6v44h92.3v-22.7h-66.1v-20.7c0-3.3,0.7-6.7,2-9.7c1.5-3.4,3.3-6.6,5.6-9.5c2.8-3.5,5.9-6.8,9.2-9.9
				c3.6-3.5,7.7-7.2,12.3-11.2c5-4.4,9.8-8.5,14.1-12.5c4.2-3.7,8.1-7.6,11.7-11.8c3.3-3.8,6-8.1,8-12.7c2-4.9,3-10.1,3-15.4v-26.2
				c0.2-6.4-0.9-12.7-2.9-18.7c-1.8-4.9-4.8-9.4-8.7-12.9c-4.1-3.5-9-6.1-14.3-7.4c-6.4-1.7-13-2.5-19.7-2.4h-0.6
				c-6.6-0.1-13.3,0.7-19.7,2.4c-5.2,1.4-10.1,3.9-14.3,7.4c-3.9,3.5-6.9,7.9-8.7,12.9c-2.1,6.1-3.1,12.4-2.9,18.7L1445.9,736.4z
				 M1560.1,736.4h25.9v-27.6c-0.1-3.5,0.3-7,1.2-10.4c0.7-2.6,1.9-4.9,3.7-6.8c1.6-1.8,3.8-3.1,6.1-3.8c2.7-0.9,5.6-1.2,8.4-1.1
				c2.9-0.1,5.7,0.3,8.5,1.2c2.4,0.7,4.5,2,6.3,3.8c1.9,2,3.3,4.3,3.9,6.8c0.9,3.3,1.5,6.8,1.4,10.4v21.2c0,2.8-0.5,5.6-1.5,8.3
				c-1.2,2.7-2.7,5.3-4.7,7.6c-2.5,2.8-5.1,5.5-8,8c-3.2,2.9-6.9,6.1-11.1,9.7c-5.3,4.6-10.4,9-15.2,13.5c-4.6,4.3-9,8.8-13,13.7
				c-3.8,4.5-6.8,9.6-9.1,15c-2.2,5.5-3.4,11.5-3.4,17.6v44h92.3v-22.7h-66.1v-20.7c0-3.3,0.7-6.7,2-9.7c1.5-3.4,3.3-6.6,5.6-9.5
				c2.8-3.5,5.9-6.8,9.2-9.9c3.6-3.5,7.7-7.2,12.3-11.2c5-4.4,9.8-8.5,14.1-12.5c4.2-3.7,8.1-7.6,11.7-11.8c3.3-3.8,6-8.1,8-12.7
				c2-4.9,3-10.1,3-15.4v-26.2c0.2-6.4-0.9-12.7-2.9-18.7c-1.8-4.9-4.8-9.4-8.7-12.9c-4.1-3.5-9-6.1-14.3-7.4
				c-6.4-1.7-13-2.5-19.7-2.4h-0.6c-6.6-0.1-13.3,0.7-19.7,2.4c-5.2,1.4-10.1,3.9-14.3,7.4c-3.9,3.5-6.9,7.9-8.7,12.9
				c-2.1,6.1-3.1,12.4-2.9,18.7L1560.1,736.4z"/>
			<path id="Brands" class="st1" d="M370.1,730v-25.6c0.1-5.7-0.9-11.3-3-16.7c-2-4.9-5-9.2-9-12.6c-4.3-3.7-9.3-6.4-14.8-8
				c-6.6-2-13.5-2.9-20.4-2.8h-51.6v203.2h51c7,0.1,13.9-0.9,20.7-2.8c5.6-1.6,10.9-4.3,15.4-8c4.1-3.4,7.4-7.8,9.6-12.6
				c2.2-5.3,3.4-10.9,3.3-16.7v-33.2c0-3.7-0.3-7.3-1.1-10.9c-0.8-3.4-2.1-6.7-3.9-9.7c-1.9-3-4.4-5.5-7.4-7.5
				c-3.5-2.2-7.4-3.6-11.5-4.2c7.4-0.7,14.1-5,17.8-11.5c1.8-3.1,3.1-6.4,3.8-9.9C369.7,737.1,370.1,733.5,370.1,730z M298.7,688.1
				h23.6c3-0.1,6.1,0.3,9,1.3c2.4,0.8,4.6,2,6.3,3.8c1.8,1.9,3.1,4.1,3.8,6.6c0.9,3,1.3,6.1,1.3,9.3v23.5c0.1,2.7-0.4,5.5-1.4,8.1
				c-0.9,2.2-2.1,4.2-3.9,5.7c-1.9,1.5-4,2.7-6.4,3.4c-2.8,0.8-5.7,1.1-8.7,1.1h-23.6L298.7,688.1L298.7,688.1z M343.9,792.4V823
				c0.1,3.2-0.3,6.2-1.3,9.3c-0.8,2.5-2.1,4.7-3.8,6.6c-1.8,1.8-3.9,3.1-6.3,3.8c-2.9,0.9-5.9,1.4-9,1.3h-24.7v-69.7h24.7
				c2.9-0.1,5.9,0.3,8.7,1.1c2.3,0.7,4.5,1.8,6.4,3.4c1.8,1.5,3.1,3.5,3.9,5.7C343.5,786.9,343.9,789.6,343.9,792.4L343.9,792.4z
				 M507.3,867.6l-30.9-87.4c3.7-1.4,7-3.4,10.1-5.8c2.9-2.3,5.5-5.1,7.5-8.4c2.1-3.4,3.7-7.1,4.6-11c1.1-4.5,1.6-9.1,1.6-13.8
				v-33.9c0.2-6.6-1-13.1-3.4-19.4c-2.1-5.2-5.5-9.8-9.8-13.4c-4.6-3.7-9.9-6.3-15.6-7.8c-6.8-1.8-13.8-2.6-20.8-2.5h-51v203.2h27.4
				v-83.3H451l28.2,83.3L507.3,867.6z M427.2,688.5h22.4c3.4-0.1,6.8,0.3,10,1.2c5.7,1.4,10.2,5.9,11.7,11.5
				c1.1,3.7,1.6,7.5,1.5,11.3v23.8c0.1,3.8-0.4,7.7-1.5,11.3c-1.5,5.6-6.1,10.1-11.7,11.5c-3.3,0.9-6.7,1.3-10,1.2h-22.4V688.5z
				 M606.3,867.7h28l-41.1-203.2h-33.8L519,867.7h26.5l8.7-47.9H598L606.3,867.7z M558.3,796.8l17.7-98.2l17.5,98.2H558.3z
				 M680.1,867.7V723l52.5,144.6h26.2V664.3h-25.3v139.9l-51.3-139.9h-27.4v203.2L680.1,867.7z M841.8,664.3h-50.4v203.2h50.4
				c7,0.1,13.9-0.8,20.8-2.5c5.6-1.4,11-4.1,15.6-7.8c4.4-3.6,7.7-8.2,9.8-13.4c2.4-6.1,3.5-12.7,3.4-19.4V707.3
				c0.2-6.6-1-13.1-3.4-19.4c-2.1-5.2-5.5-9.8-9.8-13.4c-4.6-3.7-9.9-6.3-15.6-7.8C855.8,665.1,848.8,664.3,841.8,664.3L841.8,664.3
				z M863.9,712.5v106.9c0.1,3.8-0.4,7.7-1.5,11.3c-1.5,5.6-6.1,10.1-11.7,11.5c-3.3,0.9-6.7,1.3-10,1.2h-21.8v-155h21.8
				c3.4-0.1,6.8,0.3,10,1.2c5.7,1.4,10.2,5.9,11.7,11.5C863.6,704.9,864,708.7,863.9,712.5z M1016,736.1v-32.2
				c0.2-6.5-1.1-13-3.6-18.9c-2.2-5.1-5.7-9.6-10.1-13c-4.5-3.5-9.8-6.1-15.3-7.5c-6.3-1.7-12.8-2.5-19.3-2.4h-0.6
				c-6.5-0.1-13,0.8-19.3,2.4c-5.6,1.4-10.8,4-15.3,7.5c-4.4,3.4-7.9,7.9-10.1,13c-2.5,6-3.8,12.5-3.6,18.9v25.6
				c-0.1,4.3,0.5,8.6,1.8,12.8c1.2,3.6,3,7,5.5,10c2.7,3.2,5.6,6,8.9,8.3c3.9,2.8,8,5.5,12.3,7.8l26.2,14.5c2.7,1.4,5.2,3.1,7.6,4.9
				c2,1.4,3.6,3.2,5,5.1c1.3,1.9,2.2,3.9,2.8,6.1c0.6,2.6,0.9,5.3,0.9,7.9v15.9c0.1,3.5-0.4,7-1.5,10.4c-0.9,2.7-2.3,5.2-4.3,7.2
				c-2,2-4.4,3.4-6.9,4.3c-6.2,1.9-12.7,1.9-19,0c-2.7-0.9-5-2.3-6.9-4.3c-2-2-3.4-4.5-4.3-7.2c-1-3.3-1.5-6.8-1.5-10.4v-29.9h-26.8
				v34.5c-0.2,6.7,0.9,13.3,3.3,19.6c2,5.1,5.2,9.6,9.5,13.1c4.5,3.5,9.8,6.1,15.3,7.3c6.8,1.6,13.7,2.4,20.6,2.3h0.6
				c6.9,0.1,13.9-0.7,20.6-2.3c5.6-1.4,10.8-3.9,15.3-7.4c4.3-3.5,7.5-8,9.5-13.1c2.3-6.2,3.4-12.9,3.3-19.5v-28.1
				c0.1-4.4-0.6-8.8-2-13c-1.3-3.8-3.3-7.2-5.7-10.2c-2.7-3.2-5.6-6.1-9-8.4c-3.8-2.7-7.7-5.3-11.8-7.6l-26.5-14.5
				c-2.6-1.4-5-3-7.4-4.7c-1.9-1.4-3.6-3-5-4.8c-1.3-1.8-2.2-3.8-2.7-5.9c-0.6-2.6-0.9-5.2-0.9-7.8v-13.9c-0.1-3.5,0.4-7,1.5-10.4
				c0.9-2.6,2.3-5,4.2-7c2-1.9,4.3-3.2,6.8-4c6.1-1.7,12.5-1.7,18.7,0c2.6,0.8,5,2.1,6.8,4c2,2,3.4,4.3,4.2,7
				c1,3.3,1.5,6.9,1.5,10.4V736L1016,736.1L1016,736.1z"/>
			<path id="Lokel" class="st1" d="M552.5,488.7c-3.7-0.1-7.4,0.9-10.6,2.6c-3.3,1.9-6.2,4.4-8.5,7.5c-2.7,3.7-5,7.7-6.8,11.9
				c-2.2,5.1-4.2,10.4-5.9,15.7c-1.3,3.5-2.5,7.2-3.9,10.9c-1.4,3.8-2.7,7.6-4.1,11.2c-1.5,3.6-2.9,7.1-4.5,10.1
				c-1.4,2.8-3,5.5-5,7.8c-2.3,2.6-5.1,4.6-8.3,5.9c-4,1.8-8.3,3.1-12.7,3.8c-5.5,1-11,1.7-16.5,2c-6.1,0.4-12.7,0.6-19.8,0.6h-15.9
				c-4.1,0.3-8.2-0.6-11.9-2.5c-3.2-1.9-5.6-4.9-6.8-8.4c-1.7-5-2.7-10.4-3-15.7c-0.5-6.7-0.7-14.8-0.7-24.5v-171
				c0-4.6,0.1-9,0.3-12.9c0.2-3.7,0.7-7.2,1.5-10.7c0.6-2.9,1.8-5.5,3.4-8c1.5-2.1,3.7-3.8,6.2-4.5c3.5-0.9,7-2,10.4-3.2
				c2.8-1.1,5.5-2.6,7.8-4.3c2.1-1.6,3.8-3.8,5-6.1c1.2-2.7,1.8-5.6,1.7-8.6c0.1-5.2-2-10.1-5.7-13.7c-4.9-4.3-10.6-7.2-16.9-8.9
				c-8.9-2.5-18.1-4.1-27.3-4.8c-10.8-1-23.2-1.4-37.1-1.4c-13.2,0-25.3,0.4-36.2,1.4c-9.5,0.8-18.9,2.4-28.2,4.9
				c-6.7,1.6-12.9,4.7-18.2,9c-4.1,3.5-6.5,8.6-6.5,14c-0.1,2.8,0.5,5.5,1.6,8.1c1.1,2.3,2.7,4.3,4.6,6c2.2,1.8,4.7,3.3,7.4,4.4
				c3.2,1.4,6.4,2.5,9.8,3.3c2.3,0.9,4.4,2.4,5.8,4.3c1.7,2.2,2.9,4.8,3.7,7.5c0.9,3.4,1.6,6.9,1.9,10.4c0.3,3.9,0.5,8.3,0.5,13
				v189.4c0,4.6-0.1,8.9-0.3,12.8c-0.2,3.5-0.6,7-1.4,10.4c-0.6,2.7-1.6,5.3-3.2,7.7c-1.4,2-3.3,3.6-5.6,4.3
				c-3.5,0.7-6.9,1.7-10.2,3c-3,1.1-5.8,2.7-8.4,4.6c-2.4,1.8-4.3,4.1-5.6,6.7c-1.5,2.8-2.1,6-2.1,9c-0.2,4.5,1.4,9,4.3,12.4
				c3.5,3.8,8,6.5,12.9,7.9c7,2.2,14.3,3.7,21.6,4.2c8.6,0.9,18.7,1.3,30.3,1.3c4.6,0,9.7-0.1,15.2-0.2c5.6-0.1,11.6-0.2,18-0.3
				c6.5-0.2,13.4-0.3,20.8-0.3c7.4-0.1,15.2-0.2,23.6-0.2h90.5c1.2,2,2.6,3.7,4.2,5.3c1.5,1.5,3.3,2.8,5.2,3.9
				c2,1.1,4.1,1.9,6.3,2.4c2.5,0.6,5,0.9,7.5,0.9c7.4,0,14.5-3.3,21-9.1c7.2-6.8,13-14.8,17.3-23.8c5.1-10.5,9.1-21.6,11.6-33
				c2.8-12,4.2-24.4,4.3-36.8c0.1-7.3-0.7-14.6-2.3-21.7c-1.2-5.5-3.3-10.7-6.3-15.5c-2.3-3.8-5.5-6.9-9.2-9.3
				C560.2,489.9,556.5,488.7,552.5,488.7z M735.6,636.5c21.1,0.2,42.1-3.2,62.1-9.8c17.9-6,34.5-15.4,48.8-27.5
				c13.6-11.8,24.5-26.4,31.9-42.7c7.7-17.4,11.6-36.2,11.5-55.3c0.2-18.2-3.3-36.2-10-53c-6.4-15.7-16-29.9-28.2-41.7
				c-12.6-12-27.5-21.3-43.8-27.3c-18.1-6.7-37.4-10-56.7-9.8c-21.4-0.2-42.8,3.2-63.1,9.9c-18.1,6-34.7,15.5-49,27.9
				c-13.6,11.9-24.5,26.5-31.7,42.9c-7.6,17.4-11.5,36.2-11.3,55.1c-0.2,18.2,3.3,36.2,10,53c6.4,15.7,16.1,29.8,28.3,41.5
				c12.7,11.9,27.7,21.2,44.2,27.2C696.7,633.4,716.1,636.7,735.6,636.5L735.6,636.5z M760,595.3c-9.8,0-19-5.3-27.3-14
				c-8.3-8.7-15.7-20.8-21.7-34.6c-6.2-14.2-11-29.1-14.4-44.3c-3.3-14.1-5-28.5-5.2-43c-0.1-7.2,0.8-14.3,2.7-21.2
				c1.5-5.5,3.9-10.7,7.3-15.4c2.9-3.9,6.7-7.1,11-9.3c4.3-2.1,9.1-3.2,13.9-3.2c9.6,0,18.7,5.3,26.9,14.1s15.7,21,21.8,34.7
				c6.3,14.2,11.2,29.1,14.6,44.3c3.3,14,5.1,28.4,5.3,42.8c0.1,7-0.8,14.1-2.6,20.8c-1.5,5.5-3.9,10.7-7.2,15.4
				c-2.9,4-6.7,7.2-11,9.6C769.7,594.3,764.9,595.4,760,595.3z M1214.7,583.5c-1.9-0.9-3.6-1.8-5.3-2.9c-1.9-1.2-3.7-2.6-5.3-4.1
				c-2.1-2-4.2-4.2-6.1-6.5c-2.2-2.6-4.7-5.9-7.6-9.8c-6.7-9.8-13-19.4-18.7-28.8c-5.8-9.4-11.2-18.5-16.1-27.1
				c-5-8.6-9.5-16.9-13.6-24.4c-4.1-7.6-7.9-14.6-11.2-20.7c7.4-5.2,13.5-9.6,19.1-13.2c5.5-3.7,10.4-6.6,14.9-9
				c4.3-2.3,8.6-4.3,13.2-5.8c4.6-1.5,9.2-2.8,14-3.7c4.3-0.8,8.6-1.9,12.7-3.2c3.5-1.2,6.8-2.8,9.9-4.9c5.6-3.8,9-10.3,8.7-17.1
				c0.1-4.6-1.6-9-4.7-12.5c-3.9-4.2-8.7-7.2-14.1-9.2c-7.6-2.8-15.6-4.7-23.6-5.6c-11-1.4-22.2-2-33.2-2c-12-0.1-24,0.6-35.9,2
				c-8.3,0.9-16.4,3-24.2,6c-5.3,2-10,5.1-13.7,9.4c-2.8,3.5-4.4,7.8-4.3,12.4c-0.1,2.8,0.5,5.6,1.7,8.2c1,2.1,2.6,4.1,4.4,5.6
				c1.9,1.5,3.9,2.7,6.1,3.7c2.2,0.9,4.4,1.7,6.8,2.3c1.5,0.5,2.7,1.2,4,2c0.9,0.7,1.7,1.5,2.3,2.6c0.5,1,0.7,2.1,0.5,3.2
				c-0.2,1.4-0.7,2.7-1.3,4c-1.2,2.5-2.7,4.7-4.4,6.7c-2.5,2.8-5,5.5-7.9,8.1c-3.1,2.9-6.7,6-10.6,9.1s-8.3,6.5-12.8,9.8l-24.4,16.9
				V371.2c0-6.2,0-12.2,0.1-17.9c0.1-5.8,0.1-11.3,0.2-16.6c0.1-5.3,0.1-10.4,0.2-15.2c0.1-4.9,0.1-9.4,0.1-13.7
				c0-7.9-0.1-14.9-0.7-20.9c-0.3-5.2-1.5-10.2-3.6-15c-1.7-3.9-4.7-7.1-8.5-9.1c-4.9-2.2-10.2-3.3-15.6-3.1
				c-6.6,0.1-13.2,0.7-19.7,1.7c-7.7,1.1-16.2,2.7-24.8,4.9c-8.6,2-17.2,4.6-25.6,7.7c-7.6,2.6-15,6.1-21.9,10.1
				c-2.1,1.2-3.9,2.6-5.7,4.3c-1.5,1.4-2.8,2.9-3.9,4.6c-0.9,1.5-1.7,3.2-2.1,5c-0.4,1.8-0.7,3.6-0.7,5.4c0,2.5,0.5,4.9,1.5,7.1
				c1.1,2.2,2.7,4.2,4.5,5.8c2.2,1.9,4.7,3.4,7.4,4.7c3.3,1.5,6.5,2.7,9.9,3.8c2.1,0.9,3.8,2.5,5,4.3c1.5,2.5,2.8,5.2,3.6,8
				c1,3.5,1.7,7,2.1,10.7c0.5,4,0.8,8.1,0.8,12.2v192.9c0,4.2-0.1,8.1-0.3,11.6c-0.2,3.1-0.4,6.1-1,9.2c-0.3,2.3-1.1,4.4-2.1,6.5
				c-0.8,1.5-2.1,2.7-3.6,3.5c-2.6,0.9-5,1.8-7.4,3c-2.2,1-4.3,2.4-6.2,4c-1.8,1.5-3.3,3.5-4.2,5.6c-1.1,2.4-1.6,5-1.5,7.7
				c-0.1,5.1,1.9,10.1,5.5,13.7c4.4,4.1,9.7,7.2,15.5,8.9c7.7,2.4,15.7,4,23.8,4.8c10.1,1,20.3,1.5,30.5,1.4
				c10.2,0.1,20.5-0.4,30.5-1.4c8.1-0.7,16.3-2.3,24-4.7c5.9-1.6,11.3-4.7,15.8-8.9c3.7-3.7,5.7-8.7,5.6-13.9
				c0.1-2.7-0.4-5.4-1.5-7.8c-0.9-2.1-2.4-4-4.2-5.5c-2-1.6-4.1-2.9-6.4-3.9c-2.7-1.2-5.4-2.2-8.2-3.1c-1.5-0.6-2.7-1.6-3.6-3
				c-1-1.7-1.8-3.7-2.1-5.7c-0.5-3-0.9-6-1-9c-0.2-3.7-0.3-7.9-0.3-13v-23.3c1.9-1.4,3.8-3,5.6-4.4s3.8-3,5.7-4.4
				c2-1.4,3.9-3,5.9-4.4c2-1.4,4-3,6.2-4.4c4.1,8,8.9,17.4,14,27.2c5.1,9.7,10.5,20,15.8,29.6c5.3,9.6,10.5,18.8,15.2,26.6
				c3.7,6.3,7.7,12.4,12.1,18.3c2.2,3.5,5,6.7,8.2,9.3c3.3,2.6,7,4.6,11,6c5,1.6,10.3,2.7,15.6,3.2c7.3,0.7,14.6,1,21.9,0.9
				c9.5,0.1,19-0.5,28.3-1.9c7.4-0.9,14.7-2.8,21.6-5.5c5.2-2,10-5.1,13.8-9.1c3.2-3.5,4.9-8,4.9-12.7c0.1-2.7-0.5-5.5-1.7-7.9
				c-1.2-2.2-2.8-4.1-5-5.5c-2.4-1.6-5-2.9-7.8-3.8C1221.8,584.9,1218.2,584.1,1214.7,583.5L1214.7,583.5z M1465.5,528.9
				c-1.5,0-3,0.3-4.4,0.6c-1.5,0.4-3,0.9-4.4,1.6c-1.5,0.7-3,1.5-4.4,2.4c-1.5,0.9-3,1.9-4.4,2.8c-3.8,2.8-7.7,5.4-11.8,7.7
				c-4.3,2.5-8.8,4.5-13.4,6.3c-5,1.9-10.2,3.3-15.5,4.3c-5.9,1-12,1.6-18,1.5c-8.9,0.1-17.7-1.2-26.2-3.8
				c-7.5-2.4-14.5-6.1-20.7-11c-6.1-4.9-11.1-10.8-15-17.7c-4.2-7.3-7.1-15.4-8.8-23.6h119.9c6.2,0.1,12.3-0.9,18.1-2.9
				c5-1.7,9.5-4.5,13.3-8.2c3.6-3.6,6.4-8,8.1-12.8c1.9-5.4,2.8-11.1,2.7-16.8c-0.1-10.8-2.7-21.6-7.4-31.3
				c-5.3-10.9-12.7-20.6-21.7-28.7c-10.4-9.2-22.2-16.3-35.3-21.1c-15.4-5.5-31.7-8.3-48-8.2c-18.4-0.1-36.7,3.4-53.7,10.2
				c-33.1,13.3-59.4,39.4-72.8,72.4c-7.2,17.7-10.8,36.6-10.7,55.7c-0.2,17.7,3,35.1,9.3,51.6c11.7,30.7,35.9,54.9,66.7,66.9
				c16.5,6.4,34.1,9.6,51.9,9.5c11.8,0,23.6-1.2,35.1-3.8c10.3-2.3,20.2-5.7,29.7-10.2c8.5-4,16.5-9,23.9-14.8
				c6.6-5.2,12.6-11.2,17.7-17.7c2.7-3.3,5-6.8,7.3-10.5c2.1-3.4,3.8-6.9,5.3-10.5c1.4-3.3,2.5-6.7,3.3-10.1
				c0.7-3.1,1.1-6.2,1.1-9.4c0.1-3.1-0.3-6.1-1.2-9c-0.7-2.3-1.8-4.5-3.3-6.3c-1.4-1.6-3.2-2.9-5.1-3.8
				C1470.1,529.3,1467.8,528.9,1465.5,528.9L1465.5,528.9z M1366.5,408.4c5.2-0.1,10.4,0.9,15.3,2.7c4.3,1.7,8.1,4.2,11.4,7.4
				c3.1,3.2,5.5,6.8,7.1,10.9c1.6,4.2,2.5,8.6,2.5,13c0.1,3.6-0.7,7.1-2.1,10.3c-1.5,3.1-3.8,5.8-6.5,7.8c-3.4,2.4-7.3,4.1-11.3,5
				c-5.4,1.4-10.9,2-16.3,2.2l-50.7,1c0.5-8.4,2.1-16.6,5-24.5c2.4-6.9,6-13.4,10.5-19.1c4.2-5.2,9.5-9.5,15.5-12.5
				C1352.8,409.9,1359.6,408.4,1366.5,408.4L1366.5,408.4z M1578.4,632.5c10.1,0.1,20.2-0.4,30.2-1.4c8-0.7,16-2.3,23.8-4.7
				c5.8-1.7,11.1-4.7,15.6-8.9c5.5-5.8,7.1-14.2,4.2-21.6c-0.9-2.1-2.3-4-4-5.5c-1.9-1.6-3.9-3-6.2-4c-2.6-1.2-5.1-2.3-7.9-3.2
				c-1.5-0.6-2.7-1.6-3.6-3c-1-1.7-1.8-3.7-2.1-5.7c-0.5-3-0.9-6-1-9c-0.2-3.7-0.3-7.9-0.3-13V371.2c0-6.2,0-12.2,0.1-17.9
				c0.1-5.8,0.1-11.3,0.2-16.6c0.1-5.3,0.1-10.4,0.2-15.2c0.1-4.9,0.1-9.4,0.1-13.7c0-7.9-0.1-14.9-0.7-20.9
				c-0.3-5.2-1.5-10.2-3.6-15c-1.7-3.9-4.7-7.1-8.5-9.1c-4.9-2.2-10.2-3.3-15.6-3.1c-6.6,0.1-13.1,0.7-19.6,1.7
				c-7.6,1.1-16.1,2.7-24.6,4.9c-8.6,2-17,4.6-25.2,7.7c-7.5,2.6-14.7,6.1-21.6,10.1c-2.1,1.2-3.9,2.6-5.7,4.3
				c-1.5,1.4-2.8,2.9-3.9,4.6c-0.9,1.5-1.7,3.2-2.1,5c-0.4,1.8-0.7,3.6-0.7,5.4c0,2.5,0.5,4.9,1.5,7.1c1.1,2.2,2.7,4.2,4.5,5.8
				c2.2,1.9,4.7,3.4,7.4,4.7c3.3,1.5,6.5,2.7,9.9,3.8c2,0.9,3.5,2.5,4.5,4.3c1.5,2.5,2.6,5.2,3.3,8c0.9,3.5,1.5,7.1,2,10.7
				c0.4,4,0.7,8.1,0.7,12.2v192.9c0,4.2-0.1,8.1-0.3,11.6c-0.2,3.1-0.5,6.1-1,9.2c-0.4,2.3-1.1,4.4-2.2,6.5
				c-0.9,1.5-2.2,2.8-3.9,3.5c-2.6,0.9-5,1.8-7.4,3c-2.2,1-4.3,2.4-6.2,4c-1.8,1.5-3.3,3.5-4.2,5.6c-1.1,2.4-1.6,5-1.5,7.7
				c-0.1,5.1,1.9,10.1,5.5,13.7c4.4,4.2,9.7,7.2,15.5,8.9c7.8,2.4,15.7,4,23.9,4.8C1558,632.2,1568.1,632.6,1578.4,632.5z"/>
		</g>
	</g>
</g>
</svg>
